<svg id="Layer_1" data-name="Layer 1" xmlns="http://www.w3.org/2000/svg" viewBox="-5 -5 291.1 247.25"><defs><style>.cls-1{fill:none;stroke:#fff;stroke-miterlimit:10;stroke-width:2px}</style></defs><path id="heart-poly" class="cls-1" d="M140.06 41.06l53-40 49 9 26 24 12 51-17 46-60 65-63 40-63-41-49-48-27-73 15-44 49-29 44 8 31 32z"/><path id="heart-line1" class="cls-1" d="M16.06 59.06l73-36"/><path id="heart-line2" class="cls-1" d="M24.06 88.06l80-55"/><path id="heart-line3" class="cls-1" d="M24.06 110.06l99-59"/><path id="heart-line4" class="cls-1" d="M33.06 131.06l186-108"/><path id="heart-line5" class="cls-1" d="M56.06 154.06l180-125"/><path id="heart-line6" class="cls-1" d="M85.06 180.06l157-134"/><path id="heart-line7" class="cls-1" d="M97.06 180.06l168-114"/><path id="heart-line8" class="cls-1" d="M104.06 190.06l147-80"/><path id="heart-line9" class="cls-1" d="M123.06 204.06l103-60"/><path id="heart-line10" class="cls-1" d="M146.06 216.06l31-26"/></svg>